<svg width="450" height="42" viewBox="0 0 450 42" fill="none" xmlns="http://www.w3.org/2000/svg">
<path d="M182.076 26V24.334L182.048 24.082V21.338C182.048 20.6567 181.861 20.1387 181.488 19.784C181.124 19.4293 180.587 19.252 179.878 19.252C179.374 19.252 178.903 19.3407 178.464 19.518C178.035 19.686 177.666 19.9053 177.358 20.176L177.008 19.672C177.372 19.3453 177.811 19.0933 178.324 18.916C178.837 18.7293 179.374 18.636 179.934 18.636C180.839 18.636 181.535 18.8647 182.02 19.322C182.505 19.7793 182.748 20.4607 182.748 21.366V26H182.076ZM179.444 26.056C178.903 26.056 178.431 25.972 178.03 25.804C177.638 25.6267 177.335 25.3793 177.12 25.062C176.915 24.7447 176.812 24.3807 176.812 23.97C176.812 23.5967 176.896 23.2607 177.064 22.962C177.241 22.654 177.531 22.4067 177.932 22.22C178.333 22.024 178.87 21.926 179.542 21.926H182.23V22.472H179.556C178.8 22.472 178.268 22.612 177.96 22.892C177.661 23.172 177.512 23.522 177.512 23.942C177.512 24.4087 177.689 24.782 178.044 25.062C178.399 25.342 178.898 25.482 179.542 25.482C180.158 25.482 180.676 25.342 181.096 25.062C181.525 24.782 181.843 24.376 182.048 23.844L182.244 24.32C182.048 24.852 181.712 25.2767 181.236 25.594C180.769 25.902 180.172 26.056 179.444 26.056ZM185.592 26V18.692H188.672C189.475 18.692 190.109 18.8507 190.576 19.168C191.043 19.4853 191.276 19.9473 191.276 20.554C191.276 21.1513 191.047 21.604 190.59 21.912C190.142 22.22 189.559 22.374 188.84 22.374L189.036 22.164C189.895 22.164 190.525 22.3227 190.926 22.64C191.327 22.9573 191.528 23.424 191.528 24.04C191.528 24.6653 191.299 25.1507 190.842 25.496C190.394 25.832 189.699 26 188.756 26H185.592ZM186.278 25.426H188.742C189.423 25.426 189.941 25.314 190.296 25.09C190.651 24.866 190.828 24.5067 190.828 24.012C190.828 23.508 190.669 23.144 190.352 22.92C190.044 22.6867 189.545 22.57 188.854 22.57H186.278V25.426ZM186.278 22.024H188.63C189.246 22.024 189.722 21.9073 190.058 21.674C190.403 21.4407 190.576 21.0953 190.576 20.638C190.576 20.1807 190.403 19.84 190.058 19.616C189.722 19.3827 189.246 19.266 188.63 19.266H186.278V22.024ZM195.344 26V19.112L195.54 19.322H192.488V18.692H198.9V19.322H195.848L196.044 19.112V26H195.344ZM202.969 26.056C202.269 26.056 201.644 25.8973 201.093 25.58C200.552 25.2627 200.118 24.824 199.791 24.264C199.474 23.704 199.315 23.0647 199.315 22.346C199.315 21.618 199.474 20.9787 199.791 20.428C200.118 19.868 200.552 19.4293 201.093 19.112C201.644 18.7947 202.269 18.636 202.969 18.636C203.669 18.636 204.294 18.7947 204.845 19.112C205.396 19.4293 205.83 19.868 206.147 20.428C206.464 20.9787 206.623 21.618 206.623 22.346C206.623 23.0647 206.464 23.704 206.147 24.264C205.83 24.824 205.396 25.2627 204.845 25.58C204.294 25.8973 203.669 26.056 202.969 26.056ZM202.969 25.426C203.529 25.426 204.033 25.3 204.481 25.048C204.929 24.7867 205.279 24.4227 205.531 23.956C205.783 23.4893 205.909 22.9527 205.909 22.346C205.909 21.73 205.783 21.1933 205.531 20.736C205.279 20.2693 204.929 19.91 204.481 19.658C204.033 19.3967 203.529 19.266 202.969 19.266C202.409 19.266 201.905 19.3967 201.457 19.658C201.018 19.91 200.668 20.2693 200.407 20.736C200.155 21.1933 200.029 21.73 200.029 22.346C200.029 22.9527 200.155 23.4893 200.407 23.956C200.668 24.4227 201.018 24.7867 201.457 25.048C201.905 25.3 202.409 25.426 202.969 25.426ZM208.903 26V18.692H209.589L213.047 24.474H212.739L216.211 18.692H216.855V26H216.211V19.532L216.351 19.588L213.033 25.062H212.711L209.379 19.546L209.547 19.518V26H208.903ZM224.445 26V24.334L224.417 24.082V21.338C224.417 20.6567 224.23 20.1387 223.857 19.784C223.493 19.4293 222.956 19.252 222.247 19.252C221.743 19.252 221.272 19.3407 220.833 19.518C220.404 19.686 220.035 19.9053 219.727 20.176L219.377 19.672C219.741 19.3453 220.18 19.0933 220.693 18.916C221.206 18.7293 221.743 18.636 222.303 18.636C223.208 18.636 223.904 18.8647 224.389 19.322C224.874 19.7793 225.117 20.4607 225.117 21.366V26H224.445ZM221.813 26.056C221.272 26.056 220.8 25.972 220.399 25.804C220.007 25.6267 219.704 25.3793 219.489 25.062C219.284 24.7447 219.181 24.3807 219.181 23.97C219.181 23.5967 219.265 23.2607 219.433 22.962C219.61 22.654 219.9 22.4067 220.301 22.22C220.702 22.024 221.239 21.926 221.911 21.926H224.599V22.472H221.925C221.169 22.472 220.637 22.612 220.329 22.892C220.03 23.172 219.881 23.522 219.881 23.942C219.881 24.4087 220.058 24.782 220.413 25.062C220.768 25.342 221.267 25.482 221.911 25.482C222.527 25.482 223.045 25.342 223.465 25.062C223.894 24.782 224.212 24.376 224.417 23.844L224.613 24.32C224.417 24.852 224.081 25.2767 223.605 25.594C223.138 25.902 222.541 26.056 221.813 26.056ZM229.291 26V19.112L229.487 19.322H226.435V18.692H232.847V19.322H229.795L229.991 19.112V26H229.291ZM234.346 26V18.692H235.046V24.922L240.254 18.692H240.87V26H240.17V19.77L234.962 26H234.346ZM245.517 26.07C245.013 26.07 244.505 25.9907 243.991 25.832C243.478 25.6733 243.025 25.4307 242.633 25.104L242.899 24.586C243.254 24.8847 243.665 25.1087 244.131 25.258C244.598 25.398 245.065 25.4633 245.531 25.454C246.007 25.454 246.423 25.384 246.777 25.244C247.141 25.104 247.421 24.9127 247.617 24.67C247.813 24.4273 247.911 24.1567 247.911 23.858C247.911 23.4193 247.715 23.0787 247.323 22.836C246.931 22.5933 246.395 22.472 245.713 22.472H244.537V21.94H245.685C246.077 21.94 246.423 21.8887 246.721 21.786C247.029 21.6833 247.267 21.534 247.435 21.338C247.613 21.1327 247.701 20.8947 247.701 20.624C247.701 20.3253 247.599 20.0733 247.393 19.868C247.197 19.6533 246.927 19.4947 246.581 19.392C246.245 19.2893 245.867 19.238 245.447 19.238C245.083 19.2473 244.705 19.3033 244.313 19.406C243.931 19.5087 243.553 19.6627 243.179 19.868L242.955 19.308C243.366 19.084 243.781 18.916 244.201 18.804C244.621 18.692 245.046 18.6313 245.475 18.622C246.017 18.6127 246.511 18.6873 246.959 18.846C247.407 18.9953 247.762 19.2147 248.023 19.504C248.285 19.784 248.415 20.1247 248.415 20.526C248.415 20.89 248.303 21.2073 248.079 21.478C247.865 21.7393 247.566 21.9447 247.183 22.094C246.81 22.2433 246.39 22.318 245.923 22.318L245.979 22.094C246.819 22.094 247.468 22.2573 247.925 22.584C248.392 22.9107 248.625 23.3493 248.625 23.9C248.625 24.3387 248.485 24.7213 248.205 25.048C247.925 25.3747 247.547 25.6267 247.071 25.804C246.605 25.9813 246.087 26.07 245.517 26.07ZM255.644 26V24.334L255.616 24.082V21.338C255.616 20.6567 255.43 20.1387 255.056 19.784C254.692 19.4293 254.156 19.252 253.446 19.252C252.942 19.252 252.471 19.3407 252.032 19.518C251.603 19.686 251.234 19.9053 250.926 20.176L250.576 19.672C250.94 19.3453 251.379 19.0933 251.892 18.916C252.406 18.7293 252.942 18.636 253.502 18.636C254.408 18.636 255.103 18.8647 255.588 19.322C256.074 19.7793 256.316 20.4607 256.316 21.366V26H255.644ZM253.012 26.056C252.471 26.056 252 25.972 251.598 25.804C251.206 25.6267 250.903 25.3793 250.688 25.062C250.483 24.7447 250.38 24.3807 250.38 23.97C250.38 23.5967 250.464 23.2607 250.632 22.962C250.81 22.654 251.099 22.4067 251.5 22.22C251.902 22.024 252.438 21.926 253.11 21.926H255.798V22.472H253.124C252.368 22.472 251.836 22.612 251.528 22.892C251.23 23.172 251.08 23.522 251.08 23.942C251.08 24.4087 251.258 24.782 251.612 25.062C251.967 25.342 252.466 25.482 253.11 25.482C253.726 25.482 254.244 25.342 254.664 25.062C255.094 24.782 255.411 24.376 255.616 23.844L255.812 24.32C255.616 24.852 255.28 25.2767 254.804 25.594C254.338 25.902 253.74 26.056 253.012 26.056ZM259.16 26V18.692H259.86V25.384H264.704V18.692H265.404V26H259.16ZM265.95 27.82V25.902L266.146 26H264.704V25.384H266.622V27.82H265.95ZM268.662 26V18.692H269.362V24.922L274.57 18.692H275.186V26H274.486V19.77L269.278 26H268.662ZM282.951 26V23.312L283.105 23.48H280.515C279.601 23.48 278.887 23.284 278.373 22.892C277.869 22.4907 277.617 21.9027 277.617 21.128C277.617 20.3067 277.893 19.6953 278.443 19.294C278.994 18.8927 279.722 18.692 280.627 18.692H283.595V26H282.951ZM277.575 26L279.605 23.186H280.347L278.345 26H277.575ZM282.951 23.116V19.098L283.105 19.308H280.669C279.923 19.308 279.344 19.4527 278.933 19.742C278.523 20.0313 278.317 20.5027 278.317 21.156C278.317 22.3507 279.073 22.948 280.585 22.948H283.105L282.951 23.116ZM290.209 26V18.692H296.593V26H295.893V19.112L296.089 19.322H290.713L290.909 19.112V26H290.209ZM298.174 25.972L298.244 25.37C298.3 25.3793 298.356 25.3933 298.412 25.412C298.477 25.4213 298.533 25.426 298.58 25.426C298.897 25.426 299.149 25.3093 299.336 25.076C299.522 24.8333 299.662 24.5113 299.756 24.11C299.858 23.7087 299.928 23.256 299.966 22.752C300.012 22.248 300.05 21.7347 300.078 21.212L300.204 18.692H305.328V26H304.628V19.098L304.824 19.322H300.652L300.834 19.084L300.722 21.268C300.684 21.9027 300.633 22.5093 300.568 23.088C300.502 23.6667 300.404 24.18 300.274 24.628C300.143 25.076 299.956 25.4307 299.714 25.692C299.471 25.944 299.158 26.07 298.776 26.07C298.682 26.07 298.584 26.0607 298.482 26.042C298.388 26.0233 298.286 26 298.174 25.972ZM312.916 26V24.334L312.888 24.082V21.338C312.888 20.6567 312.701 20.1387 312.328 19.784C311.964 19.4293 311.427 19.252 310.718 19.252C310.214 19.252 309.743 19.3407 309.304 19.518C308.875 19.686 308.506 19.9053 308.198 20.176L307.848 19.672C308.212 19.3453 308.651 19.0933 309.164 18.916C309.677 18.7293 310.214 18.636 310.774 18.636C311.679 18.636 312.375 18.8647 312.86 19.322C313.345 19.7793 313.588 20.4607 313.588 21.366V26H312.916ZM310.284 26.056C309.743 26.056 309.271 25.972 308.87 25.804C308.478 25.6267 308.175 25.3793 307.96 25.062C307.755 24.7447 307.652 24.3807 307.652 23.97C307.652 23.5967 307.736 23.2607 307.904 22.962C308.081 22.654 308.371 22.4067 308.772 22.22C309.173 22.024 309.71 21.926 310.382 21.926H313.07V22.472H310.396C309.64 22.472 309.108 22.612 308.8 22.892C308.501 23.172 308.352 23.522 308.352 23.942C308.352 24.4087 308.529 24.782 308.884 25.062C309.239 25.342 309.738 25.482 310.382 25.482C310.998 25.482 311.516 25.342 311.936 25.062C312.365 24.782 312.683 24.376 312.888 23.844L313.084 24.32C312.888 24.852 312.552 25.2767 312.076 25.594C311.609 25.902 311.012 26.056 310.284 26.056ZM317.762 26V19.112L317.958 19.322H314.906V18.692H321.318V19.322H318.266L318.462 19.112V26H317.762ZM325.499 26.056C324.762 26.056 324.108 25.8973 323.539 25.58C322.979 25.2627 322.536 24.824 322.209 24.264C321.892 23.704 321.733 23.0647 321.733 22.346C321.733 21.618 321.882 20.9787 322.181 20.428C322.489 19.868 322.909 19.4293 323.441 19.112C323.973 18.7947 324.57 18.636 325.233 18.636C325.896 18.636 326.488 18.79 327.011 19.098C327.543 19.406 327.958 19.84 328.257 20.4C328.565 20.9507 328.719 21.59 328.719 22.318C328.719 22.346 328.714 22.3787 328.705 22.416C328.705 22.444 328.705 22.4767 328.705 22.514H322.251V21.968H328.327L328.047 22.234C328.056 21.6647 327.935 21.156 327.683 20.708C327.44 20.2507 327.109 19.896 326.689 19.644C326.269 19.3827 325.784 19.252 325.233 19.252C324.692 19.252 324.206 19.3827 323.777 19.644C323.357 19.896 323.026 20.2507 322.783 20.708C322.54 21.156 322.419 21.6693 322.419 22.248V22.374C322.419 22.9713 322.55 23.5033 322.811 23.97C323.082 24.4273 323.45 24.7867 323.917 25.048C324.384 25.3 324.916 25.426 325.513 25.426C325.98 25.426 326.414 25.342 326.815 25.174C327.226 25.006 327.571 24.7493 327.851 24.404L328.257 24.866C327.94 25.258 327.538 25.5567 327.053 25.762C326.577 25.958 326.059 26.056 325.499 26.056ZM326.437 17.124C326.306 17.124 326.19 17.0773 326.087 16.984C325.984 16.8813 325.933 16.76 325.933 16.62C325.933 16.4707 325.984 16.3493 326.087 16.256C326.19 16.1627 326.306 16.116 326.437 16.116C326.577 16.116 326.694 16.1627 326.787 16.256C326.89 16.3493 326.941 16.4707 326.941 16.62C326.941 16.76 326.89 16.8813 326.787 16.984C326.694 17.0773 326.577 17.124 326.437 17.124ZM324.029 17.124C323.889 17.124 323.768 17.0773 323.665 16.984C323.572 16.8813 323.525 16.76 323.525 16.62C323.525 16.4707 323.572 16.3493 323.665 16.256C323.768 16.1627 323.889 16.116 324.029 16.116C324.169 16.116 324.286 16.1627 324.379 16.256C324.482 16.3493 324.533 16.4707 324.533 16.62C324.533 16.76 324.482 16.8813 324.379 16.984C324.286 17.0773 324.169 17.124 324.029 17.124ZM339.439 26L336.807 22.346L337.395 22.01L340.279 26H339.439ZM335.043 22.612V22.01H337.311V22.612H335.043ZM337.451 22.416L336.793 22.304L339.299 18.692H340.069L337.451 22.416ZM330.437 26H329.583L332.481 22.01L333.069 22.346L330.437 26ZM335.281 26H334.581V18.692H335.281V26ZM334.805 22.612H332.551V22.01H334.805V22.612ZM332.425 22.416L329.807 18.692H330.577L333.083 22.304L332.425 22.416ZM342.094 26V18.692H342.794V22.024H347.75V18.692H348.45V26H347.75V22.64H342.794V26H342.094ZM358.487 26V18.692H359.187V26H358.487ZM354.357 21.352C355.272 21.3613 355.962 21.562 356.429 21.954C356.905 22.3367 357.143 22.9013 357.143 23.648C357.143 24.4227 356.891 25.0153 356.387 25.426C355.883 25.8367 355.155 26.0373 354.203 26.028L351.473 26V18.692H352.173V21.324L354.357 21.352ZM354.175 25.468C354.922 25.4773 355.486 25.328 355.869 25.02C356.252 24.712 356.443 24.2547 356.443 23.648C356.443 23.06 356.252 22.6213 355.869 22.332C355.496 22.0427 354.931 21.8933 354.175 21.884L352.173 21.87V25.44L354.175 25.468ZM360.96 26L363.998 22.052L363.984 22.388L361.114 18.692H361.912L364.418 21.926H364.124L366.616 18.692H367.4L364.502 22.43L364.516 22.052L367.596 26H366.77L364.124 22.556L364.39 22.584L361.758 26H360.96ZM372.965 26V18.692H379.349V26H378.649V19.112L378.845 19.322H373.469L373.665 19.112V26H372.965ZM386.053 26.056C385.409 26.056 384.826 25.9067 384.303 25.608C383.79 25.3093 383.379 24.8847 383.071 24.334C382.773 23.774 382.623 23.1113 382.623 22.346C382.623 21.5807 382.773 20.9227 383.071 20.372C383.379 19.812 383.79 19.3827 384.303 19.084C384.826 18.7853 385.409 18.636 386.053 18.636C386.744 18.636 387.36 18.7947 387.901 19.112C388.452 19.42 388.881 19.854 389.189 20.414C389.507 20.974 389.665 21.618 389.665 22.346C389.665 23.074 389.507 23.718 389.189 24.278C388.881 24.838 388.452 25.2767 387.901 25.594C387.36 25.902 386.744 26.056 386.053 26.056ZM382.385 28.716V18.692H383.057V21.086L382.945 22.36L383.085 23.634V28.716H382.385ZM386.011 25.426C386.571 25.426 387.075 25.3 387.523 25.048C387.971 24.7867 388.321 24.4227 388.573 23.956C388.835 23.4893 388.965 22.9527 388.965 22.346C388.965 21.73 388.835 21.1933 388.573 20.736C388.321 20.2693 387.971 19.91 387.523 19.658C387.075 19.3967 386.571 19.266 386.011 19.266C385.451 19.266 384.947 19.3967 384.499 19.658C384.061 19.91 383.711 20.2693 383.449 20.736C383.197 21.1933 383.071 21.73 383.071 22.346C383.071 22.9527 383.197 23.4893 383.449 23.956C383.711 24.4227 384.061 24.7867 384.499 25.048C384.947 25.3 385.451 25.426 386.011 25.426ZM394.854 26.056C394.154 26.056 393.528 25.8973 392.978 25.58C392.436 25.2627 392.002 24.824 391.676 24.264C391.358 23.704 391.2 23.0647 391.2 22.346C391.2 21.618 391.358 20.9787 391.676 20.428C392.002 19.868 392.436 19.4293 392.978 19.112C393.528 18.7947 394.154 18.636 394.854 18.636C395.554 18.636 396.179 18.7947 396.73 19.112C397.28 19.4293 397.714 19.868 398.032 20.428C398.349 20.9787 398.508 21.618 398.508 22.346C398.508 23.0647 398.349 23.704 398.032 24.264C397.714 24.824 397.28 25.2627 396.73 25.58C396.179 25.8973 395.554 26.056 394.854 26.056ZM394.854 25.426C395.414 25.426 395.918 25.3 396.366 25.048C396.814 24.7867 397.164 24.4227 397.416 23.956C397.668 23.4893 397.794 22.9527 397.794 22.346C397.794 21.73 397.668 21.1933 397.416 20.736C397.164 20.2693 396.814 19.91 396.366 19.658C395.918 19.3967 395.414 19.266 394.854 19.266C394.294 19.266 393.79 19.3967 393.342 19.658C392.903 19.91 392.553 20.2693 392.292 20.736C392.04 21.1933 391.914 21.73 391.914 22.346C391.914 22.9527 392.04 23.4893 392.292 23.956C392.553 24.4227 392.903 24.7867 393.342 25.048C393.79 25.3 394.294 25.426 394.854 25.426ZM400.787 26V18.692H401.487V25.384H406.331V18.692H407.031V26H400.787ZM407.577 27.82V25.902L407.773 26H406.331V25.384H408.249V27.82H407.577ZM413.313 26.056C412.576 26.056 411.923 25.8973 411.353 25.58C410.793 25.2627 410.35 24.824 410.023 24.264C409.706 23.704 409.547 23.0647 409.547 22.346C409.547 21.618 409.697 20.9787 409.995 20.428C410.303 19.868 410.723 19.4293 411.255 19.112C411.787 18.7947 412.385 18.636 413.047 18.636C413.71 18.636 414.303 18.79 414.825 19.098C415.357 19.406 415.773 19.84 416.071 20.4C416.379 20.9507 416.533 21.59 416.533 22.318C416.533 22.346 416.529 22.3787 416.519 22.416C416.519 22.444 416.519 22.4767 416.519 22.514H410.065V21.968H416.141L415.861 22.234C415.871 21.6647 415.749 21.156 415.497 20.708C415.255 20.2507 414.923 19.896 414.503 19.644C414.083 19.3827 413.598 19.252 413.047 19.252C412.506 19.252 412.021 19.3827 411.591 19.644C411.171 19.896 410.84 20.2507 410.597 20.708C410.355 21.156 410.233 21.6693 410.233 22.248V22.374C410.233 22.9713 410.364 23.5033 410.625 23.97C410.896 24.4273 411.265 24.7867 411.731 25.048C412.198 25.3 412.73 25.426 413.327 25.426C413.794 25.426 414.228 25.342 414.629 25.174C415.04 25.006 415.385 24.7493 415.665 24.404L416.071 24.866C415.754 25.258 415.353 25.5567 414.867 25.762C414.391 25.958 413.873 26.056 413.313 26.056ZM421.775 26.056C421.065 26.056 420.431 25.8973 419.871 25.58C419.32 25.2627 418.881 24.824 418.555 24.264C418.237 23.704 418.079 23.0647 418.079 22.346C418.079 21.618 418.237 20.974 418.555 20.414C418.881 19.854 419.32 19.42 419.871 19.112C420.431 18.7947 421.065 18.636 421.775 18.636C422.363 18.636 422.895 18.748 423.371 18.972C423.856 19.196 424.248 19.532 424.547 19.98L424.029 20.358C423.767 19.9847 423.441 19.7093 423.049 19.532C422.657 19.3547 422.232 19.266 421.775 19.266C421.205 19.266 420.692 19.3967 420.235 19.658C419.787 19.91 419.432 20.2693 419.171 20.736C418.919 21.1933 418.793 21.73 418.793 22.346C418.793 22.962 418.919 23.5033 419.171 23.97C419.432 24.4273 419.787 24.7867 420.235 25.048C420.692 25.3 421.205 25.426 421.775 25.426C422.232 25.426 422.657 25.3373 423.049 25.16C423.441 24.9827 423.767 24.7073 424.029 24.334L424.547 24.712C424.248 25.16 423.856 25.496 423.371 25.72C422.895 25.944 422.363 26.056 421.775 26.056ZM429.445 26.056C428.735 26.056 428.101 25.8973 427.541 25.58C426.99 25.2627 426.551 24.824 426.225 24.264C425.907 23.704 425.749 23.0647 425.749 22.346C425.749 21.618 425.907 20.974 426.225 20.414C426.551 19.854 426.99 19.42 427.541 19.112C428.101 18.7947 428.735 18.636 429.445 18.636C430.033 18.636 430.565 18.748 431.041 18.972C431.526 19.196 431.918 19.532 432.217 19.98L431.699 20.358C431.437 19.9847 431.111 19.7093 430.719 19.532C430.327 19.3547 429.902 19.266 429.445 19.266C428.875 19.266 428.362 19.3967 427.905 19.658C427.457 19.91 427.102 20.2693 426.841 20.736C426.589 21.1933 426.463 21.73 426.463 22.346C426.463 22.962 426.589 23.5033 426.841 23.97C427.102 24.4273 427.457 24.7867 427.905 25.048C428.362 25.3 428.875 25.426 429.445 25.426C429.902 25.426 430.327 25.3373 430.719 25.16C431.111 24.9827 431.437 24.7073 431.699 24.334L432.217 24.712C431.918 25.16 431.526 25.496 431.041 25.72C430.565 25.944 430.033 26.056 429.445 26.056ZM437.072 26.056C436.372 26.056 435.747 25.8973 435.196 25.58C434.655 25.2627 434.221 24.824 433.894 24.264C433.577 23.704 433.418 23.0647 433.418 22.346C433.418 21.618 433.577 20.9787 433.894 20.428C434.221 19.868 434.655 19.4293 435.196 19.112C435.747 18.7947 436.372 18.636 437.072 18.636C437.772 18.636 438.398 18.7947 438.948 19.112C439.499 19.4293 439.933 19.868 440.25 20.428C440.568 20.9787 440.726 21.618 440.726 22.346C440.726 23.0647 440.568 23.704 440.25 24.264C439.933 24.824 439.499 25.2627 438.948 25.58C438.398 25.8973 437.772 26.056 437.072 26.056ZM437.072 25.426C437.632 25.426 438.136 25.3 438.584 25.048C439.032 24.7867 439.382 24.4227 439.634 23.956C439.886 23.4893 440.012 22.9527 440.012 22.346C440.012 21.73 439.886 21.1933 439.634 20.736C439.382 20.2693 439.032 19.91 438.584 19.658C438.136 19.3967 437.632 19.266 437.072 19.266C436.512 19.266 436.008 19.3967 435.56 19.658C435.122 19.91 434.772 20.2693 434.51 20.736C434.258 21.1933 434.132 21.73 434.132 22.346C434.132 22.9527 434.258 23.4893 434.51 23.956C434.772 24.4227 435.122 24.7867 435.56 25.048C436.008 25.3 436.512 25.426 437.072 25.426ZM443.006 26V18.692H446.086C446.889 18.692 447.523 18.8507 447.99 19.168C448.457 19.4853 448.69 19.9473 448.69 20.554C448.69 21.1513 448.461 21.604 448.004 21.912C447.556 22.22 446.973 22.374 446.254 22.374L446.45 22.164C447.309 22.164 447.939 22.3227 448.34 22.64C448.741 22.9573 448.942 23.424 448.942 24.04C448.942 24.6653 448.713 25.1507 448.256 25.496C447.808 25.832 447.113 26 446.17 26H443.006ZM443.692 25.426H446.156C446.837 25.426 447.355 25.314 447.71 25.09C448.065 24.866 448.242 24.5067 448.242 24.012C448.242 23.508 448.083 23.144 447.766 22.92C447.458 22.6867 446.959 22.57 446.268 22.57H443.692V25.426ZM443.692 22.024H446.044C446.66 22.024 447.136 21.9073 447.472 21.674C447.817 21.4407 447.99 21.0953 447.99 20.638C447.99 20.1807 447.817 19.84 447.472 19.616C447.136 19.3827 446.66 19.266 446.044 19.266H443.692V22.024Z" fill="black"/>
<path d="M74.792 30L70.268 21.472L75.156 18.612L81.708 30H74.792ZM63.456 30V11.8H69.592V30H63.456ZM67.824 23.422V18.586H74.714V23.422H67.824ZM75.754 21.55L70.112 20.978L75.338 11.8H81.734L75.754 21.55ZM85.5972 35.304C84.8172 35.304 84.0199 35.1827 83.2052 34.94C82.4079 34.7147 81.7665 34.4113 81.2812 34.03L83.2312 30C83.5259 30.2253 83.8552 30.4073 84.2192 30.546C84.6005 30.6847 84.9645 30.754 85.3112 30.754C85.8312 30.754 86.2299 30.6413 86.5072 30.416C86.7845 30.208 87.0099 29.8873 87.1832 29.454L87.7812 27.946L88.1972 27.374L92.7472 15.778H98.3112L92.4612 30.286C91.9412 31.586 91.3345 32.6 90.6412 33.328C89.9652 34.056 89.2025 34.5673 88.3532 34.862C87.5212 35.1567 86.6025 35.304 85.5972 35.304ZM86.9752 30.65L80.7872 15.778H86.8192L91.0832 26.854L86.9752 30.65ZM107.306 30.416C106.162 30.416 105.079 30.26 104.056 29.948C103.051 29.636 102.167 29.1247 101.404 28.414C100.642 27.7033 100.044 26.7673 99.6104 25.606C99.1771 24.4447 98.9604 23.0147 98.9604 21.316C98.9604 20.2413 99.0557 19.2447 99.2464 18.326C99.4371 17.39 99.7317 16.532 100.13 15.752C100.529 14.972 101.04 14.2873 101.664 13.698C102.288 13.0913 103.034 12.5887 103.9 12.19C104.767 11.774 105.755 11.462 106.864 11.254L113.936 9.98L114.716 14.79L108.736 15.856C108.355 15.9253 107.965 16.012 107.566 16.116C107.168 16.2027 106.786 16.3327 106.422 16.506C106.058 16.662 105.729 16.8873 105.434 17.182C105.14 17.4767 104.906 17.858 104.732 18.326C104.576 18.794 104.498 19.3747 104.498 20.068C104.498 20.276 104.507 20.4493 104.524 20.588C104.542 20.7267 104.559 20.8913 104.576 21.082C104.594 21.2553 104.602 21.5327 104.602 21.914L103.12 20.614C103.571 19.99 104.082 19.4613 104.654 19.028C105.226 18.5773 105.876 18.2307 106.604 17.988C107.332 17.7453 108.156 17.624 109.074 17.624C110.461 17.624 111.64 17.884 112.61 18.404C113.598 18.924 114.344 19.6433 114.846 20.562C115.366 21.4633 115.626 22.4947 115.626 23.656C115.626 25.0773 115.262 26.2907 114.534 27.296C113.806 28.3013 112.818 29.0727 111.57 29.61C110.322 30.1473 108.901 30.416 107.306 30.416ZM107.41 26.074C107.861 26.074 108.251 25.9787 108.58 25.788C108.91 25.58 109.17 25.3027 109.36 24.956C109.551 24.6093 109.646 24.2193 109.646 23.786C109.646 23.3353 109.551 22.954 109.36 22.642C109.17 22.33 108.901 22.0873 108.554 21.914C108.225 21.7407 107.844 21.654 107.41 21.654C106.96 21.654 106.561 21.7407 106.214 21.914C105.868 22.0873 105.599 22.33 105.408 22.642C105.218 22.9367 105.122 23.292 105.122 23.708C105.122 24.1587 105.218 24.566 105.408 24.93C105.599 25.2767 105.868 25.554 106.214 25.762C106.561 25.97 106.96 26.074 107.41 26.074ZM117.435 30V15.778H123.285V22.2L128.199 15.778H133.607V30H127.757V23.552L122.869 30H117.435ZM139.627 30V19.106L140.901 20.354H135.285V15.778H149.819V20.354H144.203L145.477 19.106V30H139.627Z" fill="#37337A"/>
<path fill-rule="evenodd" clip-rule="evenodd" d="M20.2597 36.5914V31.8653C25.1672 31.8653 30.1333 32.7714 35.0154 33.1481C35.0698 40.4148 24.2437 36.9441 20.2597 36.5914ZM34 29C28.3088 29.6658 9 28 3.49998 25.5C3.49998 22.5 5.59298 16.7298 6.5 13.5C7.62333 9.5 8.27409 5.78976 11.5 3.00001C18.1741 2.21915 33.9041 2.81005 40 4.5C40 9.33909 37.6236 25.4477 34 29ZM9.4604 30.1942C9.93225 38.4874 3.46497 39.765 26.9023 41.7925C31.7392 42.211 31.6906 42.1507 35.7116 40.1361C43.5148 36.2267 44.4545 36.3215 42.706 27.263C42.0367 23.7957 45.9058 13.7658 46 9.3391L42.7322 8.50332C42.0625 8.33201 42.8021 5.99691 42.705 2.11548C38.3083 0.521426 28.3657 0.0563492 23.4354 0.0563492C9.28896 0.0563492 7.31755 -1.28188 4 12C1.28523 22.8691 -3.38825 29.2305 9.4604 30.1942Z" fill="#37337A"/>
<rect x="163" y="9" width="1" height="24" fill="#37337A"/>
</svg>
